<?xml version="1.0" standalone="no"?>
<!DOCTYPE svg PUBLIC "-//W3C//DTD SVG 20010904//EN"
 "http://www.w3.org/TR/2001/REC-SVG-20010904/DTD/svg10.dtd">
<svg version="1.0" xmlns="http://www.w3.org/2000/svg"
 width="500.000000pt" height="500.000000pt" viewBox="0 0 500.000000 500.000000"
 preserveAspectRatio="xMidYMid meet">
<metadata>
Created by potrace 1.16, written by Peter Selinger 2001-2019
</metadata>
<g transform="translate(0.000000,500.000000) scale(0.100000,-0.100000)"
fill="#000000" stroke="none">
<path d="M1756 2728 c-4 -15 -7 -115 -5 -222 4 -220 8 -232 85 -271 53 -27
240 -28 294 -2 19 10 26 14 15 11 -11 -4 -67 -9 -125 -11 -122 -5 -188 13
-224 60 -19 26 -21 45 -26 245 -3 142 -8 208 -14 190z"/>
<path d="M3246 2638 c-4 -20 -6 -101 -4 -180 3 -160 11 -183 71 -215 40 -21
291 -33 310 -14 8 8 -22 11 -116 11 -139 0 -175 9 -217 54 -24 27 -25 33 -30
204 -4 128 -7 167 -14 140z"/>
</g>
</svg>
